ffmpeg started on 2025-06-19 at 11:43:48
Report written to "D:\Convert\FFMetrics\reports\ssim_report-6.txt"
Log level: 32
Command line:
ffmpeg -hide_banner -nostdin -i "G:\\\xc0\xed\xe8\xec\xe5\\[\xd2\xee\xef-4]\\Fate\\\xc0\xef\xee\xea\xf0\xe8\xf4\\Fate_Apocrypha_[01]_[AniLibria_TV]_[HDTVRip_720p]_HEVC.mkv" -i "G:\\\xc0\xed\xe8\xec\xe5\\[\xd2\xee\xef-4]\\Fate\\\xc0\xef\xee\xea\xf0\xe8\xf4\\Fate_Apocrypha_[01]_[AniLibria_TV]_[HDTVRip_720p].mkv" -lavfi "[0:v]settb=AVTB,setpts=PTS-STARTPTS,format=pix_fmts=yuv420p10,fps=24000/1001,scale=1280:720:flags=bicubic[main];[1:v]settb=AVTB,setpts=PTS-STARTPTS,format=pix_fmts=yuv420p,fps=24000/1001,scale=1280:720:flags=bicubic[ref];[main][ref]ssim=eof_action=endall:stats_file='D\\:/Convert/FFMetrics/logs/ssim_logfile-6.txt'" -f null -
Input #0, matroska,webm, from 'G:\Аниме\[Топ-4]\Fate\Апокриф\Fate_Apocrypha_[01]_[AniLibria_TV]_[HDTVRip_720p]_HEVC.mkv':
  Metadata:
    ENCODER         : Lavf61.7.100
  Duration: 00:24:00.13, start: -0.021000, bitrate: 746 kb/s
  Stream #0:0(jpn): Video: hevc (Main 10), yuv420p10le(tv, bt709, progressive), 1280x720 [SAR 1:1 DAR 16:9], 23.81 fps, 23.81 tbr, 1k tbn (default)
      Metadata:
        ENCODER         : Lavc61.19.100 libx265
        BPS             : 548350
        DURATION        : 00:24:00.012000000
        NUMBER_OF_FRAMES: 37940
        NUMBER_OF_BYTES : 98703893
        _STATISTICS_WRITING_APP: mkvpropedit v66.0.0 ('Josie') 64-bit
        _STATISTICS_WRITING_DATE_UTC: 2025-06-16 14:42:19
        _STATISTICS_TAGS: BPS DURATION NUMBER_OF_FRAMES NUMBER_OF_BYTES
  Stream #0:1(rus): Audio: aac (LC), 48000 Hz, stereo, fltp (default)
      Metadata:
        title           : Ados Amikiri Anzen Hekomi Silv
        ENCODER         : Lavc61.19.100 aac
        BPS             : 194118
        DURATION        : 00:24:00.107000000
        NUMBER_OF_FRAMES: 67506
        NUMBER_OF_BYTES : 34943974
        _STATISTICS_WRITING_APP: mkvpropedit v66.0.0 ('Josie') 64-bit
        _STATISTICS_WRITING_DATE_UTC: 2025-06-16 14:42:19
        _STATISTICS_TAGS: BPS DURATION NUMBER_OF_FRAMES NUMBER_OF_BYTES
  Stream #0:2(rus): Subtitle: ass (ssa) (default) (forced)
      Metadata:
        title           : Надписи
        BPS             : 4
        DURATION        : 00:18:09.420000000
        NUMBER_OF_FRAMES: 4
        NUMBER_OF_BYTES : 562
        _STATISTICS_WRITING_APP: mkvpropedit v66.0.0 ('Josie') 64-bit
        _STATISTICS_WRITING_DATE_UTC: 2025-06-16 14:42:19
        _STATISTICS_TAGS: BPS DURATION NUMBER_OF_FRAMES NUMBER_OF_BYTES
  Stream #0:3(rus): Subtitle: ass (ssa)
      Metadata:
        title           : Полные
        BPS             : 150
        DURATION        : 00:23:28.610000000
        NUMBER_OF_FRAMES: 256
        NUMBER_OF_BYTES : 26574
        _STATISTICS_WRITING_APP: mkvpropedit v66.0.0 ('Josie') 64-bit
        _STATISTICS_WRITING_DATE_UTC: 2025-06-16 14:42:19
        _STATISTICS_TAGS: BPS DURATION NUMBER_OF_FRAMES NUMBER_OF_BYTES
Input #1, matroska,webm, from 'G:\Аниме\[Топ-4]\Fate\Апокриф\Fate_Apocrypha_[01]_[AniLibria_TV]_[HDTVRip_720p].mkv':
  Metadata:
    encoder         : libebml v1.3.0 + libmatroska v1.4.1
    creation_time   : 2017-07-09T16:46:29.000000Z
  Duration: 00:24:00.11, start: 0.000000, bitrate: 2225 kb/s
  Stream #1:0: Video: h264 (Main), yuv420p(tv, bt709, progressive), 1280x720, SAR 1:1 DAR 16:9, 23.81 fps, 23.81 tbr, 1k tbn (default)
      Metadata:
        _STATISTICS_WRITING_APP: mkvmerge v7.3.0 ('Nouages') 64bit built on Oct 22 2014 18:53:34
        _STATISTICS_WRITING_APP-eng: mkvmerge v7.3.0 ('Nouages') 64bit built on Oct 22 2014 18:53:34
        _STATISTICS_WRITING_DATE_UTC: 2017-07-09 16:46:29
        _STATISTICS_WRITING_DATE_UTC-eng: 2017-07-09 16:46:29
        _STATISTICS_TAGS: BPS DURATION NUMBER_OF_FRAMES NUMBER_OF_BYTES
        _STATISTICS_TAGS-eng: BPS DURATION NUMBER_OF_FRAMES NUMBER_OF_BYTES
        BPS             : 1813041
        BPS-eng         : 1813041
        DURATION        : 00:24:00.029000000
        DURATION-eng    : 00:24:00.029000000
        NUMBER_OF_FRAMES: 37940
        NUMBER_OF_FRAMES-eng: 37940
        NUMBER_OF_BYTES : 326354104
        NUMBER_OF_BYTES-eng: 326354104
  Stream #1:1(rus): Audio: aac (LC), 48000 Hz, stereo, fltp (default)
      Metadata:
        title           : Ados Amikiri Anzen Hekomi Silv
        BPS             : 192093
        BPS-eng         : 192093
        DURATION        : 00:24:00.106000000
        DURATION-eng    : 00:24:00.106000000
        NUMBER_OF_FRAMES: 67505
        NUMBER_OF_FRAMES-eng: 67505
        NUMBER_OF_BYTES : 34579303
        NUMBER_OF_BYTES-eng: 34579303
        _STATISTICS_WRITING_APP: mkvmerge v7.3.0 ('Nouages') 64bit built on Oct 22 2014 18:53:34
        _STATISTICS_WRITING_APP-eng: mkvmerge v7.3.0 ('Nouages') 64bit built on Oct 22 2014 18:53:34
        _STATISTICS_WRITING_DATE_UTC: 2017-07-09 16:46:29
        _STATISTICS_WRITING_DATE_UTC-eng: 2017-07-09 16:46:29
        _STATISTICS_TAGS: BPS DURATION NUMBER_OF_FRAMES NUMBER_OF_BYTES
        _STATISTICS_TAGS-eng: BPS DURATION NUMBER_OF_FRAMES NUMBER_OF_BYTES
  Stream #1:2(jpn): Audio: aac (LC), 48000 Hz, stereo, fltp
      Metadata:
        title           : Оригинал
        _STATISTICS_WRITING_APP: mkvmerge v7.3.0 ('Nouages') 64bit built on Oct 22 2014 18:53:34
        _STATISTICS_WRITING_APP-eng: mkvmerge v7.3.0 ('Nouages') 64bit built on Oct 22 2014 18:53:34
        _STATISTICS_WRITING_DATE_UTC: 2017-07-09 16:46:29
        _STATISTICS_WRITING_DATE_UTC-eng: 2017-07-09 16:46:29
        _STATISTICS_TAGS: BPS DURATION NUMBER_OF_FRAMES NUMBER_OF_BYTES
        _STATISTICS_TAGS-eng: BPS DURATION NUMBER_OF_FRAMES NUMBER_OF_BYTES
        BPS             : 214689
        BPS-eng         : 214689
        DURATION        : 00:24:00.085000000
        DURATION-eng    : 00:24:00.085000000
        NUMBER_OF_FRAMES: 67504
        NUMBER_OF_FRAMES-eng: 67504
        NUMBER_OF_BYTES : 38646360
        NUMBER_OF_BYTES-eng: 38646360
  Stream #1:3(rus): Subtitle: ass (ssa) (default) (forced)
      Metadata:
        title           : Надписи
        _STATISTICS_WRITING_APP: mkvmerge v7.3.0 ('Nouages') 64bit built on Oct 22 2014 18:53:34
        _STATISTICS_WRITING_APP-eng: mkvmerge v7.3.0 ('Nouages') 64bit built on Oct 22 2014 18:53:34
        _STATISTICS_WRITING_DATE_UTC: 2017-07-09 16:46:29
        _STATISTICS_WRITING_DATE_UTC-eng: 2017-07-09 16:46:29
        _STATISTICS_TAGS: BPS DURATION NUMBER_OF_FRAMES NUMBER_OF_BYTES
        _STATISTICS_TAGS-eng: BPS DURATION NUMBER_OF_FRAMES NUMBER_OF_BYTES
        BPS             : 4
        BPS-eng         : 4
        DURATION        : 00:18:09.420000000
        DURATION-eng    : 00:18:09.420000000
        NUMBER_OF_FRAMES: 4
        NUMBER_OF_FRAMES-eng: 4
        NUMBER_OF_BYTES : 562
        NUMBER_OF_BYTES-eng: 562
  Stream #1:4(rus): Subtitle: ass (ssa)
      Metadata:
        title           : Полные
        _STATISTICS_WRITING_APP: mkvmerge v7.3.0 ('Nouages') 64bit built on Oct 22 2014 18:53:34
        _STATISTICS_WRITING_APP-eng: mkvmerge v7.3.0 ('Nouages') 64bit built on Oct 22 2014 18:53:34
        _STATISTICS_WRITING_DATE_UTC: 2017-07-09 16:46:29
        _STATISTICS_WRITING_DATE_UTC-eng: 2017-07-09 16:46:29
        _STATISTICS_TAGS: BPS DURATION NUMBER_OF_FRAMES NUMBER_OF_BYTES
        _STATISTICS_TAGS-eng: BPS DURATION NUMBER_OF_FRAMES NUMBER_OF_BYTES
        BPS             : 150
        BPS-eng         : 150
        DURATION        : 00:23:28.610000000
        DURATION-eng    : 00:23:28.610000000
        NUMBER_OF_FRAMES: 256
        NUMBER_OF_FRAMES-eng: 256
        NUMBER_OF_BYTES : 26574
        NUMBER_OF_BYTES-eng: 26574
  Stream #1:5: Attachment: ttf
      Metadata:
        filename        : ALBR.ttf
        mimetype        : application/x-truetype-font
  Stream #1:6: Attachment: ttf
      Metadata:
        filename        : 9511(1).ttf
        mimetype        : application/x-truetype-font
Stream mapping:
  Stream #0:0 (hevc) -> settb:default
  Stream #1:0 (h264) -> settb:default
  ssim:default -> Stream #0:0 (wrapped_avframe)
  Stream #0:1 -> #0:1 (aac (native) -> pcm_s16le (native))
Output #0, null, to 'pipe:':
  Metadata:
    encoder         : Lavf61.7.100
  Stream #0:0: Video: wrapped_avframe, yuv420p10le(tv, bt709, progressive), 1280x720 [SAR 1:1 DAR 16:9], q=2-31, 200 kb/s, 23.98 fps, 23.98 tbn
      Metadata:
        encoder         : Lavc61.19.100 wrapped_avframe
  Stream #0:1(rus): Audio: pcm_s16le, 48000 Hz, stereo, s16, 1536 kb/s (default)
      Metadata:
        title           : Ados Amikiri Anzen Hekomi Silv
        _STATISTICS_TAGS: BPS DURATION NUMBER_OF_FRAMES NUMBER_OF_BYTES
        BPS             : 194118
        DURATION        : 00:24:00.107000000
        NUMBER_OF_FRAMES: 67506
        NUMBER_OF_BYTES : 34943974
        _STATISTICS_WRITING_APP: mkvpropedit v66.0.0 ('Josie') 64-bit
        _STATISTICS_WRITING_DATE_UTC: 2025-06-16 14:42:19
        encoder         : Lavc61.19.100 pcm_s16le
frame=  355 fps=0.0 q=-0.0 size=N/A time=00:00:14.80 bitrate=N/A speed=28.9x    frame=  827 fps=795 q=-0.0 size=N/A time=00:00:34.49 bitrate=N/A speed=33.2x    frame= 1233 fps=795 q=-0.0 size=N/A time=00:00:51.42 bitrate=N/A speed=33.2x    frame= 1674 fps=812 q=-0.0 size=N/A time=00:01:09.81 bitrate=N/A speed=33.9x    frame= 2020 fps=781 q=-0.0 size=N/A time=00:01:24.25 bitrate=N/A speed=32.6x    frame= 2391 fps=774 q=-0.0 size=N/A time=00:01:39.72 bitrate=N/A speed=32.3x    frame= 2789 fps=771 q=-0.0 size=N/A time=00:01:56.32 bitrate=N/A speed=32.2x    frame= 3141 fps=761 q=-0.0 size=N/A time=00:02:11.00 bitrate=N/A speed=31.7x    frame= 3561 fps=768 q=-0.0 size=N/A time=00:02:28.52 bitrate=N/A speed=  32x    frame= 4022 fps=779 q=-0.0 size=N/A time=00:02:47.75 bitrate=N/A speed=32.5x    frame= 4413 fps=778 q=-0.0 size=N/A time=00:03:04.05 bitrate=N/A speed=32.4x    frame= 4783 fps=773 q=-0.0 size=N/A time=00:03:19.49 bitrate=N/A speed=32.3x    frame= 5104 fps=761 q=-0.0 size=N/A time=00:03:32.87 bitrate=N/A speed=31.7x    frame= 5548 fps=768 q=-0.0 size=N/A time=00:03:51.39 bitrate=N/A speed=32.1x    frame= 5915 fps=765 q=-0.0 size=N/A time=00:04:06.70 bitrate=N/A speed=31.9x    frame= 6390 fps=774 q=-0.0 size=N/A time=00:04:26.51 bitrate=N/A speed=32.3x    frame= 6831 fps=779 q=-0.0 size=N/A time=00:04:44.90 bitrate=N/A speed=32.5x    frame= 7302 fps=787 q=-0.0 size=N/A time=00:05:04.55 bitrate=N/A speed=32.8x    frame= 7858 fps=801 q=-0.0 size=N/A time=00:05:27.74 bitrate=N/A speed=33.4x    frame= 8158 fps=791 q=-0.0 size=N/A time=00:05:40.25 bitrate=N/A speed=  33x    frame= 8711 fps=805 q=-0.0 size=N/A time=00:06:03.32 bitrate=N/A speed=33.6x    frame= 9246 fps=814 q=-0.0 size=N/A time=00:06:25.63 bitrate=N/A speed=  34x    frame= 9717 fps=819 q=-0.0 size=N/A time=00:06:45.27 bitrate=N/A speed=34.2x    frame=10236 fps=827 q=-0.0 size=N/A time=00:07:06.92 bitrate=N/A speed=34.5x    frame=10852 fps=841 q=-0.0 size=N/A time=00:07:32.61 bitrate=N/A speed=35.1x    frame=11471 fps=856 q=-0.0 size=N/A time=00:07:58.43 bitrate=N/A speed=35.7x    frame=12085 fps=868 q=-0.0 size=N/A time=00:08:24.04 bitrate=N/A speed=36.2x    frame=12698 fps=879 q=-0.0 size=N/A time=00:08:49.61 bitrate=N/A speed=36.7x    frame=13355 fps=893 q=-0.0 size=N/A time=00:09:17.01 bitrate=N/A speed=37.2x    frame=13967 fps=903 q=-0.0 size=N/A time=00:09:42.54 bitrate=N/A speed=37.7x    frame=14624 fps=915 q=-0.0 size=N/A time=00:10:09.94 bitrate=N/A speed=38.1x    frame=15268 fps=926 q=-0.0 size=N/A time=00:10:36.80 bitrate=N/A speed=38.6x    frame=15825 fps=930 q=-0.0 size=N/A time=00:11:00.03 bitrate=N/A speed=38.8x    frame=16439 fps=938 q=-0.0 size=N/A time=00:11:25.64 bitrate=N/A speed=39.1x    frame=16999 fps=942 q=-0.0 size=N/A time=00:11:48.99 bitrate=N/A speed=39.3x    frame=17644 fps=950 q=-0.0 size=N/A time=00:12:15.90 bitrate=N/A speed=39.6x    frame=18252 fps=957 q=-0.0 size=N/A time=00:12:41.26 bitrate=N/A speed=39.9x    frame=18911 fps=965 q=-0.0 size=N/A time=00:13:08.74 bitrate=N/A speed=40.3x    frame=19420 fps=965 q=-0.0 size=N/A time=00:13:29.97 bitrate=N/A speed=40.3x    frame=20037 fps=972 q=-0.0 size=N/A time=00:13:55.70 bitrate=N/A speed=40.5x    frame=20647 fps=977 q=-0.0 size=N/A time=00:14:21.15 bitrate=N/A speed=40.7x    frame=21225 fps=980 q=-0.0 size=N/A time=00:14:45.25 bitrate=N/A speed=40.9x    frame=21806 fps=984 q=-0.0 size=N/A time=00:15:09.49 bitrate=N/A speed=  41x    frame=22395 fps=987 q=-0.0 size=N/A time=00:15:34.05 bitrate=N/A speed=41.2x    frame=22803 fps=983 q=-0.0 size=N/A time=00:15:51.07 bitrate=N/A speed=  41x    frame=23181 fps=977 q=-0.0 size=N/A time=00:16:06.84 bitrate=N/A speed=40.8x    frame=23682 fps=977 q=-0.0 size=N/A time=00:16:27.73 bitrate=N/A speed=40.7x    frame=24272 fps=981 q=-0.0 size=N/A time=00:16:52.34 bitrate=N/A speed=40.9x    frame=24689 fps=977 q=-0.0 size=N/A time=00:17:09.73 bitrate=N/A speed=40.8x    frame=25077 fps=972 q=-0.0 size=N/A time=00:17:25.91 bitrate=N/A speed=40.6x    frame=25499 fps=970 q=-0.0 size=N/A time=00:17:43.52 bitrate=N/A speed=40.4x    frame=26011 fps=970 q=-0.0 size=N/A time=00:18:04.87 bitrate=N/A speed=40.4x    frame=26640 fps=975 q=-0.0 size=N/A time=00:18:31.11 bitrate=N/A speed=40.7x    frame=27246 fps=979 q=-0.0 size=N/A time=00:18:56.38 bitrate=N/A speed=40.8x    frame=27787 fps=979 q=-0.0 size=N/A time=00:19:18.94 bitrate=N/A speed=40.9x    frame=28162 fps=975 q=-0.0 size=N/A time=00:19:34.59 bitrate=N/A speed=40.7x    frame=28521 fps=970 q=-0.0 size=N/A time=00:19:49.56 bitrate=N/A speed=40.5x    frame=29028 fps=971 q=-0.0 size=N/A time=00:20:10.70 bitrate=N/A speed=40.5x    frame=29621 fps=974 q=-0.0 size=N/A time=00:20:35.44 bitrate=N/A speed=40.6x    frame=30164 fps=975 q=-0.0 size=N/A time=00:20:58.09 bitrate=N/A speed=40.7x    frame=30713 fps=977 q=-0.0 size=N/A time=00:21:20.98 bitrate=N/A speed=40.7x    frame=31274 fps=978 q=-0.0 size=N/A time=00:21:44.38 bitrate=N/A speed=40.8x    frame=31564 fps=972 q=-0.0 size=N/A time=00:21:56.48 bitrate=N/A speed=40.5x    frame=31835 fps=964 q=-0.0 size=N/A time=00:22:07.78 bitrate=N/A speed=40.2x    frame=32062 fps=956 q=-0.0 size=N/A time=00:22:17.25 bitrate=N/A speed=39.9x    frame=32307 fps=949 q=-0.0 size=N/A time=00:22:27.47 bitrate=N/A speed=39.6x    frame=32585 fps=943 q=-0.0 size=N/A time=00:22:39.06 bitrate=N/A speed=39.3x    frame=32886 fps=938 q=-0.0 size=N/A time=00:22:51.62 bitrate=N/A speed=39.1x    frame=33168 fps=932 q=-0.0 size=N/A time=00:23:03.38 bitrate=N/A speed=38.9x    frame=33484 fps=928 q=-0.0 size=N/A time=00:23:16.56 bitrate=N/A speed=38.7x    frame=34056 fps=930 q=-0.0 size=N/A time=00:23:40.41 bitrate=N/A speed=38.8x    [Parsed_ssim_10 @ 000001d2d72e03c0] SSIM Y:0.984289 (18.038017) U:0.989575 (19.819096) V:0.990779 (20.352213) All:0.986252 (18.617523)
[out#0/null @ 000001d2cf335900] video:14835KiB audio:270024KiB subtitle:0KiB other streams:0KiB global headers:0KiB muxing overhead: unknown
frame=34526 fps=932 q=-0.0 Lsize=N/A time=00:24:00.02 bitrate=N/A speed=38.9x    
